<svg width="79" height="62" viewBox="0 0 79 62" fill="none" xmlns="http://www.w3.org/2000/svg">
<g filter="url(#filter0_d_484_82)">
<path d="M71.5 7.5H41.5L34 0H11.5C7.375 0 4.0375 3.375 4.0375 7.5L4 52.5C4 56.625 7.375 60 11.5 60H71.5C75.625 60 79 56.625 79 52.5V15C79 10.875 75.625 7.5 71.5 7.5ZM71.5 52.5H11.5V15H71.5V52.5Z" fill="#AFAFAF"/>
<path d="M11.5 0.5H33.793L41.293 8H71.5C75.3489 8 78.5 11.1511 78.5 15V52.5C78.5 56.3489 75.3489 59.5 71.5 59.5H11.5C7.65114 59.5 4.5 56.3489 4.5 52.5L4.53711 7.5C4.53711 3.64787 7.6544 0.5 11.5 0.5ZM11 53H72V14.5H11V53Z" stroke="black"/>
</g>
<path d="M42.0004 21.1666C43.9009 21.1667 45.7238 21.9214 47.0677 23.2653C48.4118 24.6093 49.1664 26.4329 49.1664 28.3336V30.528C50.176 30.6407 51.1237 31.0927 51.849 31.818C52.6927 32.6618 53.1663 33.8064 53.1664 34.9996V44.3336C53.1663 45.5269 52.6927 46.6714 51.849 47.5153C51.0051 48.3592 49.8599 48.8336 48.6664 48.8336H35.3334C34.14 48.8336 32.9956 48.3591 32.1517 47.5153C31.3079 46.6714 30.8335 45.527 30.8334 44.3336V34.9996L30.8392 34.777C30.8944 33.6647 31.3605 32.6092 32.1517 31.818C32.8769 31.0929 33.824 30.6418 34.8334 30.5289V28.3336C34.8334 26.4329 35.588 24.6093 36.932 23.2653C38.276 21.9212 40.0996 21.1666 42.0004 21.1666ZM35.3334 34.1666C35.1124 34.1666 34.9008 34.2546 34.7445 34.4108C34.5883 34.567 34.5005 34.7787 34.5004 34.9996V44.3336C34.5005 44.5545 34.5883 44.7663 34.7445 44.9225C34.9008 45.0787 35.1124 45.1666 35.3334 45.1666H48.6664C48.8874 45.1666 49.0999 45.0788 49.2562 44.9225C49.4123 44.7663 49.5003 44.5544 49.5004 44.3336V34.9996C49.5003 34.7788 49.4123 34.567 49.2562 34.4108C49.0999 34.2545 48.8874 34.1666 48.6664 34.1666H35.3334ZM42.0052 35.8336C42.5094 35.83 43.003 35.979 43.4203 36.2623C43.8406 36.5478 44.1633 36.9558 44.3451 37.4303C44.5269 37.9048 44.5589 38.4234 44.4369 38.9166C44.3341 39.3324 44.125 39.712 43.8334 40.0221V41.6666C43.8334 42.1528 43.64 42.6187 43.2963 42.9625C42.9525 43.3063 42.4865 43.4995 42.0004 43.4996C41.5141 43.4996 41.0473 43.3063 40.7035 42.9625C40.3599 42.6187 40.1664 42.1527 40.1664 41.6666V40.0221C39.8749 39.7121 39.6657 39.3323 39.5629 38.9166C39.4409 38.4234 39.4729 37.9047 39.6547 37.4303C39.8365 36.9558 40.1591 36.5478 40.5795 36.2623C40.9967 35.979 41.4904 35.83 41.9945 35.8336H42.0052ZM42.0004 24.8336C41.0721 24.8336 40.1812 25.2017 39.5248 25.858C38.8684 26.5144 38.5004 27.4054 38.5004 28.3336V30.4996H45.5004V28.3336C45.5004 27.4054 45.1314 26.5144 44.475 25.858C43.8187 25.2018 42.9284 24.8337 42.0004 24.8336Z" fill="#AFAFAF" stroke="black"/>
<defs>
<filter id="filter0_d_484_82" x="0" y="0" width="79" height="62" filterUnits="userSpaceOnUse" color-interpolation-filters="sRGB">
<feFlood flood-opacity="0" result="BackgroundImageFix"/>
<feColorMatrix in="SourceAlpha" type="matrix" values="0 0 0 0 0 0 0 0 0 0 0 0 0 0 0 0 0 0 127 0" result="hardAlpha"/>
<feOffset dx="-4" dy="2"/>
<feComposite in2="hardAlpha" operator="out"/>
<feColorMatrix type="matrix" values="0 0 0 0 0.467067 0 0 0 0 0.467067 0 0 0 0 0.467067 0 0 0 1 0"/>
<feBlend mode="normal" in2="BackgroundImageFix" result="effect1_dropShadow_484_82"/>
<feBlend mode="normal" in="SourceGraphic" in2="effect1_dropShadow_484_82" result="shape"/>
</filter>
</defs>
</svg>
