<svg width="79" height="62" viewBox="0 0 79 62" fill="none" xmlns="http://www.w3.org/2000/svg">
<g filter="url(#filter0_d_483_81)">
<path d="M71.5 7.5H41.5L34 0H11.5C7.375 0 4.0375 3.375 4.0375 7.5L4 52.5C4 56.625 7.375 60 11.5 60H71.5C75.625 60 79 56.625 79 52.5V15C79 10.875 75.625 7.5 71.5 7.5ZM71.5 52.5H11.5V15H71.5V52.5Z" fill="#2BB04C"/>
<path d="M11.5 0.5H33.793L41.293 8H71.5C75.3489 8 78.5 11.1511 78.5 15V52.5C78.5 56.3489 75.3489 59.5 71.5 59.5H11.5C7.65114 59.5 4.5 56.3489 4.5 52.5L4.53711 7.5C4.53711 3.64787 7.6544 0.5 11.5 0.5ZM11 53H72V14.5H11V53Z" stroke="black"/>
</g>
<path d="M53.0107 18.6484L59.3555 25.0576L59.7031 25.4092L59.3555 25.7607L36 49.3516L35.6445 49.7109L35.29 49.3516L22.6445 36.5791L22.2969 36.2275L22.6445 35.876L28.9893 29.4668L29.3447 29.1074L29.7002 29.4668L35.6445 35.4707L52.2998 18.6484L52.6553 18.2891L53.0107 18.6484ZM36 40.8213L35.6445 41.1807L35.29 40.8213L29.3447 34.8164L27.9482 36.2266L35.6445 44.001L54.0508 25.4082L52.6543 23.998L36 40.8213Z" fill="#2BB04C" stroke="black"/>
<defs>
<filter id="filter0_d_483_81" x="0" y="0" width="79" height="62" filterUnits="userSpaceOnUse" color-interpolation-filters="sRGB">
<feFlood flood-opacity="0" result="BackgroundImageFix"/>
<feColorMatrix in="SourceAlpha" type="matrix" values="0 0 0 0 0 0 0 0 0 0 0 0 0 0 0 0 0 0 127 0" result="hardAlpha"/>
<feOffset dx="-4" dy="2"/>
<feComposite in2="hardAlpha" operator="out"/>
<feColorMatrix type="matrix" values="0 0 0 0 0 0 0 0 0 0.338462 0 0 0 0 0.0839792 0 0 0 1 0"/>
<feBlend mode="normal" in2="BackgroundImageFix" result="effect1_dropShadow_483_81"/>
<feBlend mode="normal" in="SourceGraphic" in2="effect1_dropShadow_483_81" result="shape"/>
</filter>
</defs>
</svg>
