<svg width="79" height="62" viewBox="0 0 79 62" fill="none" xmlns="http://www.w3.org/2000/svg">
<g filter="url(#filter0_d_482_80)">
<path d="M71.5 7.5H41.5L34 0H11.5C7.375 0 4.0375 3.375 4.0375 7.5L4 52.5C4 56.625 7.375 60 11.5 60H71.5C75.625 60 79 56.625 79 52.5V15C79 10.875 75.625 7.5 71.5 7.5ZM71.5 52.5H11.5V15H71.5V52.5Z" fill="#D28AFF"/>
<path d="M11.5 0.5H33.793L41.293 8H71.5C75.3489 8 78.5 11.1511 78.5 15V52.5C78.5 56.3489 75.3489 59.5 71.5 59.5H11.5C7.65114 59.5 4.5 56.3489 4.5 52.5L4.53711 7.5C4.53711 3.64787 7.6544 0.5 11.5 0.5ZM11 53H72V14.5H11V53Z" stroke="black"/>
</g>
<path d="M31.875 20.5095C32.2041 20.5095 32.5275 20.596 32.8125 20.7605L52.0625 31.8708H52.0615C52.3488 32.0343 52.5884 32.2707 52.7549 32.5564C52.9217 32.8428 53.0097 33.1683 53.0098 33.4998C53.0098 33.8314 52.9219 34.1575 52.7549 34.4441C52.5885 34.7297 52.3488 34.9652 52.0615 35.1287L52.0625 35.1296L32.8125 46.239C32.5275 46.4036 32.2041 46.49 31.875 46.49C31.5459 46.49 31.2225 46.4036 30.9375 46.239C30.6514 46.0738 30.4136 45.836 30.249 45.5496C30.0845 45.2632 29.9987 44.9384 30 44.6082V22.3904C29.999 22.0605 30.0847 21.736 30.249 21.45C30.4137 21.1635 30.6514 20.9257 30.9375 20.7605C31.2225 20.596 31.5459 20.5095 31.875 20.5095ZM33.75 41.365L47.374 33.4998L33.75 25.6345V41.365Z" fill="#D28AFF" stroke="black"/>
<defs>
<filter id="filter0_d_482_80" x="0" y="0" width="79" height="62" filterUnits="userSpaceOnUse" color-interpolation-filters="sRGB">
<feFlood flood-opacity="0" result="BackgroundImageFix"/>
<feColorMatrix in="SourceAlpha" type="matrix" values="0 0 0 0 0 0 0 0 0 0 0 0 0 0 0 0 0 0 127 0" result="hardAlpha"/>
<feOffset dx="-4" dy="2"/>
<feComposite in2="hardAlpha" operator="out"/>
<feColorMatrix type="matrix" values="0 0 0 0 0.135889 0 0 0 0 0.0261169 0 0 0 0 0.411538 0 0 0 1 0"/>
<feBlend mode="normal" in2="BackgroundImageFix" result="effect1_dropShadow_482_80"/>
<feBlend mode="normal" in="SourceGraphic" in2="effect1_dropShadow_482_80" result="shape"/>
</filter>
</defs>
</svg>
