<svg width="29" height="27" viewBox="0 0 29 27" fill="none" xmlns="http://www.w3.org/2000/svg">
<path d="M2.94444 4.5H26.0556M20.2778 19.5H15.9444M8.72222 13.5L11.6111 16.5L8.72222 19.5M1.5 20.7003V6.30029C1.5 4.62014 1.5 3.77943 1.81487 3.1377C2.09184 2.57321 2.53346 2.1146 3.07704 1.82698C3.69501 1.5 4.50457 1.5 6.1225 1.5H22.8781C24.496 1.5 25.3038 1.5 25.9218 1.82698C26.4654 2.1146 26.9085 2.57321 27.1854 3.1377C27.5 3.7788 27.5 4.61849 27.5 6.29536V20.7046C27.5 22.3815 27.5 23.22 27.1854 23.8611C26.9085 24.4256 26.4654 24.8857 25.9218 25.1733C25.3044 25.5 24.497 25.5 22.8822 25.5L6.11781 25.5C4.50301 25.5 3.69441 25.5 3.07704 25.1733C2.53346 24.8857 2.09184 24.4256 1.81487 23.8611C1.5 23.2194 1.5 22.3805 1.5 20.7003Z" stroke="#F9E5FF" stroke-width="3" stroke-linecap="round" stroke-linejoin="round"/>
</svg>
